<?xml version="1.0" encoding="UTF-8"?>
<svg id="Audiobookshelf--Streamline-Simple-Icons" xmlns="http://www.w3.org/2000/svg" version="1.1" viewBox="0 0 24 24">
  <!-- Generator: Adobe Illustrator 29.8.2, SVG Export Plug-In . SVG Version: 2.1.1 Build 3)  -->
  <defs>
    <style>
      .st0 {
        fill: #fbfbf8;
      }
    </style>
  </defs>
  <path class="st0" d="M11.98,2.18c-3.92,0-7.09,3.18-7.09,7.09v1.54c-.15.1-.3.21-.44.33-.08.07-.13.17-.13.27v1.84c0,.1.05.2.13.27.22.18.72.56,1.5.96v.18c0,.48.31.87.69.87s.69-.39.69-.87v-4.41c0-.48-.31-.87-.69-.87s-.67.36-.69.81h0v-.91c0-3.33,2.7-6.03,6.03-6.03,3.33,0,6.03,2.7,6.03,6.03,0,0,0,0,0,0v.91c-.02-.45-.33-.81-.69-.81s-.69.39-.69.87v4.41c0,.48.31.87.69.87s.69-.39.69-.87v-.18c.54-.26,1.04-.58,1.5-.96.08-.07.13-.17.13-.27v-1.84c0-.1-.04-.2-.12-.27-.14-.12-.29-.23-.44-.33v-1.54c0-3.92-3.18-7.09-7.09-7.09Z"/>
  <path class="st0" d="M9.5,7.73h-.87c-.46,0-.84.38-.84.84v9.41c0,.46.38.84.84.84h.87c.46,0,.84-.38.84-.84v-9.41c0-.46-.38-.84-.84-.84ZM10.03,10.18h-1.91v-.2h1.91v.2Z"/>
  <path class="st0" d="M12.41,7.73h-.87c-.46,0-.84.38-.84.84v9.41c0,.46.38.84.84.84h.87c.46,0,.84-.38.84-.84v-9.41c0-.46-.38-.84-.84-.84ZM12.93,10.18h-1.91v-.2h1.91v.2Z"/>
  <path class="st0" d="M15.32,7.73h-.87c-.46,0-.84.38-.84.84v9.41c0,.46.38.84.84.84h.87c.46,0,.84-.38.84-.84v-9.41c0-.46-.38-.84-.84-.84ZM15.84,10.18h-1.91v-.2h1.91v.2Z"/>
  <path class="st0" d="M6.35,19.1c-.35.01-.62.31-.61.66.01.33.28.59.61.61h11.26c.35,0,.63-.28.63-.63s-.28-.63-.63-.63H6.35Z"/>
</svg>