<?xml version="1.0" encoding="UTF-8"?>
<svg id="Layer_1" xmlns="http://www.w3.org/2000/svg" version="1.1" viewBox="0 0 472.02 477.37">
  <!-- Generator: Adobe Illustrator 29.8.2, SVG Export Plug-In . SVG Version: 2.1.1 Build 3)  -->
  <defs>
    <style>
      .st0 {
        fill: #fbfbf8;
      }
    </style>
  </defs>
  <path class="st0" d="M241.37,313.75c20.83-5.27,34.52-18.34,38.02-36.27,3.67-18.8-5.58-37.39-22.5-45.23-3.45-1.6-16.37-5.58-28.72-8.85-29.9-7.92-35.48-10.9-37.16-19.87-1.68-8.94,3.79-17.33,13.11-20.12,5.28-1.58,19.88-1.71,24.92-.21,7.52,2.23,12.78,6.3,15.4,11.93,1.38,2.96,2.51,6.41,2.52,7.66.02,4.63,2.45,5.56,14.51,5.56,14.98,0,15.6-.45,13.83-10.04-4.52-24.55-26.63-40.08-57.04-40.08-24.59,0-44.12,10-52.34,26.8-2.46,5.03-3.01,7.66-3.33,15.98-.48,12.32,1.79,19.29,8.82,27.12,6.71,7.46,15.85,11.58,39.54,17.82,30.89,8.13,34.11,9.44,38.41,15.64,2.28,3.28,2.44,14.55.27,18.75-4.2,8.12-13.96,12.11-29.28,11.95-12.04-.12-20.13-2.6-26.36-8.07-4.19-3.68-8.6-12.22-8.62-16.68-.02-6.54-.94-6.98-14.54-6.98-15.3,0-15.35.04-13.71,10.65,4.59,29.56,31.04,47.07,67.92,44.95,4.88-.28,12.23-1.36,16.34-2.4h0Z"/>
  <path class="st0" d="M135.5,194.96c-5.35-11-15.68-21.45-26.38-26.68-12.55-6.13-19.3-6.93-58.53-6.93-32.87,0-34.38.08-35.41,2.02-1.49,2.79-1.49,144.58,0,147.38,1.04,1.94,2.55,2.02,36.6,2.02,29.01,0,36.9-.31,43.04-1.7h0c15.16-3.42,29.38-13.15,37.31-25.51,14.94-23.29,16.45-63.71,3.37-90.6ZM103.9,277.26c-9.05,9.05-18.07,11.49-42.51,11.49h-18.05v-51.69s0-51.69,0-51.69h16.52c19.11,0,26.55,1.12,34.6,5.22,15.48,7.87,21.16,20.35,21.16,46.47,0,20.64-3.23,31.72-11.71,40.2Z"/>
  <path class="st0" d="M326.74,311.11c.35-.91.67-25.23.7-54.04.05-34.01.42-51.66,1.07-50.3.55,1.15,9.35,25.35,19.57,53.78l18.57,51.69,11.12.3c10.6.28,11.19.18,12.64-2.09.84-1.31,9.6-24.94,19.48-52.51s18.36-50.83,18.86-51.69c.52-.9.92,21,.95,51.17.03,29,.43,53.34.9,54.08.63,1,4.04,1.26,13.3,1.04l12.45-.3v-150.37l-17.75-.26c-9.76-.14-18.38.14-19.14.63s-9.92,25.75-20.36,56.13-19.39,55.24-19.9,55.24-9.6-24.67-20.21-54.82-19.78-55.42-20.38-56.15c-.82-1.01-5.57-1.26-19.47-1.04l-18.39.28-.27,74.14c-.15,40.78-.05,74.73.23,75.45.36.94,3.95,1.3,12.95,1.3,10.39,0,12.56-.27,13.09-1.65h0Z"/>
</svg>